<mxfile host="Electron" modified="2023-08-16T06:14:13.547Z" agent="Mozilla/5.0 (X11; Linux x86_64) AppleWebKit/537.36 (KHTML, like Gecko) draw.io/21.3.7 Chrome/112.0.5615.204 Electron/24.5.0 Safari/537.36" etag="aohBErSGa7cENmn4Dqe_" version="21.3.7" type="device">
  <diagram id="6a731a19-8d31-9384-78a2-239565b7b9f0" name="Page-1">
    <mxGraphModel dx="1038" dy="999" grid="1" gridSize="10" guides="1" tooltips="1" connect="1" arrows="1" fold="1" page="1" pageScale="1" pageWidth="1169" pageHeight="827" background="none" math="0" shadow="0">
      <root>
        <mxCell id="0" />
        <mxCell id="1" parent="0" />
        <mxCell id="_NjTWiB04A3sFYl365fQ-59" style="edgeStyle=orthogonalEdgeStyle;rounded=0;orthogonalLoop=1;jettySize=auto;html=1;" parent="1" source="_NjTWiB04A3sFYl365fQ-55" target="_NjTWiB04A3sFYl365fQ-58" edge="1">
          <mxGeometry relative="1" as="geometry" />
        </mxCell>
        <mxCell id="_NjTWiB04A3sFYl365fQ-55" value="SCM Commit" style="rounded=0;whiteSpace=wrap;html=1;" parent="1" vertex="1">
          <mxGeometry x="250" y="120" width="120" height="60" as="geometry" />
        </mxCell>
        <mxCell id="_NjTWiB04A3sFYl365fQ-62" style="edgeStyle=orthogonalEdgeStyle;rounded=0;orthogonalLoop=1;jettySize=auto;html=1;entryX=0;entryY=0.5;entryDx=0;entryDy=0;entryPerimeter=0;" parent="1" source="_NjTWiB04A3sFYl365fQ-58" target="_NjTWiB04A3sFYl365fQ-61" edge="1">
          <mxGeometry relative="1" as="geometry">
            <Array as="points">
              <mxPoint x="480" y="190" />
              <mxPoint x="70" y="190" />
              <mxPoint x="70" y="250" />
            </Array>
          </mxGeometry>
        </mxCell>
        <mxCell id="_NjTWiB04A3sFYl365fQ-58" value="Repo &amp;amp; Branch&lt;br&gt;Name" style="shape=parallelogram;perimeter=parallelogramPerimeter;whiteSpace=wrap;html=1;fixedSize=1;" parent="1" vertex="1">
          <mxGeometry x="420" y="120" width="120" height="60" as="geometry" />
        </mxCell>
        <mxCell id="OKQ_2tcIt85Euyr-6cJD-54" style="edgeStyle=orthogonalEdgeStyle;rounded=0;orthogonalLoop=1;jettySize=auto;html=1;entryX=0;entryY=0.5;entryDx=0;entryDy=0;" edge="1" parent="1" source="_NjTWiB04A3sFYl365fQ-60" target="_NjTWiB04A3sFYl365fQ-55">
          <mxGeometry relative="1" as="geometry" />
        </mxCell>
        <mxCell id="_NjTWiB04A3sFYl365fQ-60" value="Start" style="strokeWidth=2;html=1;shape=mxgraph.flowchart.terminator;whiteSpace=wrap;" parent="1" vertex="1">
          <mxGeometry x="90" y="120" width="100" height="60" as="geometry" />
        </mxCell>
        <mxCell id="_NjTWiB04A3sFYl365fQ-64" style="edgeStyle=orthogonalEdgeStyle;rounded=0;orthogonalLoop=1;jettySize=auto;html=1;entryX=0;entryY=0.5;entryDx=0;entryDy=0;" parent="1" source="_NjTWiB04A3sFYl365fQ-61" target="_NjTWiB04A3sFYl365fQ-63" edge="1">
          <mxGeometry relative="1" as="geometry" />
        </mxCell>
        <mxCell id="_NjTWiB04A3sFYl365fQ-61" value="Workflow&lt;br&gt;Start" style="strokeWidth=2;html=1;shape=mxgraph.flowchart.terminator;whiteSpace=wrap;" parent="1" vertex="1">
          <mxGeometry x="90" y="220" width="100" height="60" as="geometry" />
        </mxCell>
        <mxCell id="_NjTWiB04A3sFYl365fQ-67" style="edgeStyle=orthogonalEdgeStyle;rounded=0;orthogonalLoop=1;jettySize=auto;html=1;entryX=0;entryY=0.5;entryDx=0;entryDy=0;" parent="1" source="_NjTWiB04A3sFYl365fQ-63" target="_NjTWiB04A3sFYl365fQ-65" edge="1">
          <mxGeometry relative="1" as="geometry" />
        </mxCell>
        <mxCell id="_NjTWiB04A3sFYl365fQ-63" value="SCM Checkout" style="rounded=0;whiteSpace=wrap;html=1;" parent="1" vertex="1">
          <mxGeometry x="250" y="220" width="120" height="60" as="geometry" />
        </mxCell>
        <mxCell id="_NjTWiB04A3sFYl365fQ-68" style="edgeStyle=orthogonalEdgeStyle;rounded=0;orthogonalLoop=1;jettySize=auto;html=1;entryX=0;entryY=0.5;entryDx=0;entryDy=0;" parent="1" source="_NjTWiB04A3sFYl365fQ-65" edge="1">
          <mxGeometry relative="1" as="geometry">
            <mxPoint x="590" y="250" as="targetPoint" />
          </mxGeometry>
        </mxCell>
        <mxCell id="_NjTWiB04A3sFYl365fQ-65" value="Aithenticate with&lt;br&gt;ECR" style="rounded=0;whiteSpace=wrap;html=1;" parent="1" vertex="1">
          <mxGeometry x="420" y="220" width="120" height="60" as="geometry" />
        </mxCell>
        <mxCell id="_NjTWiB04A3sFYl365fQ-78" style="edgeStyle=orthogonalEdgeStyle;rounded=0;orthogonalLoop=1;jettySize=auto;html=1;entryX=0;entryY=0.5;entryDx=0;entryDy=0;" parent="1" source="_NjTWiB04A3sFYl365fQ-69" target="_NjTWiB04A3sFYl365fQ-70" edge="1">
          <mxGeometry relative="1" as="geometry" />
        </mxCell>
        <mxCell id="_NjTWiB04A3sFYl365fQ-69" value="Build Docker Images" style="rounded=0;whiteSpace=wrap;html=1;" parent="1" vertex="1">
          <mxGeometry x="590" y="220" width="120" height="60" as="geometry" />
        </mxCell>
        <mxCell id="_NjTWiB04A3sFYl365fQ-76" style="edgeStyle=orthogonalEdgeStyle;rounded=0;orthogonalLoop=1;jettySize=auto;html=1;entryX=0;entryY=0.5;entryDx=0;entryDy=0;" parent="1" source="_NjTWiB04A3sFYl365fQ-70" target="_NjTWiB04A3sFYl365fQ-71" edge="1">
          <mxGeometry relative="1" as="geometry" />
        </mxCell>
        <mxCell id="_NjTWiB04A3sFYl365fQ-77" style="edgeStyle=orthogonalEdgeStyle;rounded=0;orthogonalLoop=1;jettySize=auto;html=1;entryX=0;entryY=0.5;entryDx=0;entryDy=0;" parent="1" source="_NjTWiB04A3sFYl365fQ-70" target="_NjTWiB04A3sFYl365fQ-72" edge="1">
          <mxGeometry relative="1" as="geometry">
            <Array as="points">
              <mxPoint x="820" y="300" />
              <mxPoint x="740" y="300" />
              <mxPoint x="740" y="450" />
            </Array>
          </mxGeometry>
        </mxCell>
        <mxCell id="_NjTWiB04A3sFYl365fQ-70" value="Tag Docker Images" style="rounded=0;whiteSpace=wrap;html=1;" parent="1" vertex="1">
          <mxGeometry x="760" y="220" width="120" height="60" as="geometry" />
        </mxCell>
        <mxCell id="_NjTWiB04A3sFYl365fQ-74" style="edgeStyle=orthogonalEdgeStyle;rounded=0;orthogonalLoop=1;jettySize=auto;html=1;exitX=1;exitY=0.5;exitDx=0;exitDy=0;entryX=0;entryY=0.5;entryDx=0;entryDy=0;" parent="1" source="_NjTWiB04A3sFYl365fQ-71" target="_NjTWiB04A3sFYl365fQ-73" edge="1">
          <mxGeometry relative="1" as="geometry">
            <Array as="points">
              <mxPoint x="900" y="350" />
              <mxPoint x="900" y="250" />
            </Array>
          </mxGeometry>
        </mxCell>
        <mxCell id="_NjTWiB04A3sFYl365fQ-71" value="Tag &quot;latest&quot;" style="shape=process;whiteSpace=wrap;html=1;backgroundOutline=1;" parent="1" vertex="1">
          <mxGeometry x="760" y="320" width="120" height="60" as="geometry" />
        </mxCell>
        <mxCell id="_NjTWiB04A3sFYl365fQ-75" style="edgeStyle=orthogonalEdgeStyle;rounded=0;orthogonalLoop=1;jettySize=auto;html=1;entryX=0;entryY=0.5;entryDx=0;entryDy=0;" parent="1" source="_NjTWiB04A3sFYl365fQ-72" target="_NjTWiB04A3sFYl365fQ-73" edge="1">
          <mxGeometry relative="1" as="geometry">
            <mxPoint x="930" y="250" as="targetPoint" />
            <Array as="points">
              <mxPoint x="900" y="450" />
              <mxPoint x="900" y="250" />
            </Array>
          </mxGeometry>
        </mxCell>
        <mxCell id="_NjTWiB04A3sFYl365fQ-72" value="Tag with build#" style="shape=process;whiteSpace=wrap;html=1;backgroundOutline=1;" parent="1" vertex="1">
          <mxGeometry x="760" y="420" width="120" height="60" as="geometry" />
        </mxCell>
        <mxCell id="_NjTWiB04A3sFYl365fQ-87" style="edgeStyle=orthogonalEdgeStyle;rounded=0;orthogonalLoop=1;jettySize=auto;html=1;entryX=0;entryY=0.5;entryDx=0;entryDy=0;entryPerimeter=0;" parent="1" source="_NjTWiB04A3sFYl365fQ-73" target="_NjTWiB04A3sFYl365fQ-86" edge="1">
          <mxGeometry relative="1" as="geometry" />
        </mxCell>
        <mxCell id="_NjTWiB04A3sFYl365fQ-73" value="Push Docker Images" style="rounded=0;whiteSpace=wrap;html=1;" parent="1" vertex="1">
          <mxGeometry x="970" y="220" width="120" height="60" as="geometry" />
        </mxCell>
        <mxCell id="_NjTWiB04A3sFYl365fQ-79" value="Push &quot;latest&quot;" style="shape=process;whiteSpace=wrap;html=1;backgroundOutline=1;" parent="1" vertex="1">
          <mxGeometry x="970" y="320" width="120" height="60" as="geometry" />
        </mxCell>
        <mxCell id="_NjTWiB04A3sFYl365fQ-80" value="Push with build#" style="shape=process;whiteSpace=wrap;html=1;backgroundOutline=1;" parent="1" vertex="1">
          <mxGeometry x="970" y="420" width="120" height="60" as="geometry" />
        </mxCell>
        <mxCell id="_NjTWiB04A3sFYl365fQ-81" style="edgeStyle=orthogonalEdgeStyle;rounded=0;orthogonalLoop=1;jettySize=auto;html=1;entryX=0;entryY=0.5;entryDx=0;entryDy=0;" parent="1" edge="1">
          <mxGeometry relative="1" as="geometry">
            <mxPoint x="1030" y="280" as="sourcePoint" />
            <mxPoint x="970" y="450" as="targetPoint" />
            <Array as="points">
              <mxPoint x="1030" y="300" />
              <mxPoint x="950" y="300" />
              <mxPoint x="950" y="450" />
            </Array>
          </mxGeometry>
        </mxCell>
        <mxCell id="_NjTWiB04A3sFYl365fQ-85" style="edgeStyle=orthogonalEdgeStyle;rounded=0;orthogonalLoop=1;jettySize=auto;html=1;entryX=0;entryY=0.5;entryDx=0;entryDy=0;exitX=0.5;exitY=1;exitDx=0;exitDy=0;" parent="1" source="_NjTWiB04A3sFYl365fQ-73" target="_NjTWiB04A3sFYl365fQ-79" edge="1">
          <mxGeometry relative="1" as="geometry">
            <mxPoint x="1010" y="300" as="sourcePoint" />
            <mxPoint x="950" y="370" as="targetPoint" />
          </mxGeometry>
        </mxCell>
        <mxCell id="_NjTWiB04A3sFYl365fQ-86" value="End" style="strokeWidth=2;html=1;shape=mxgraph.flowchart.terminator;whiteSpace=wrap;" parent="1" vertex="1">
          <mxGeometry x="1130" y="220" width="100" height="60" as="geometry" />
        </mxCell>
        <mxCell id="OKQ_2tcIt85Euyr-6cJD-55" style="edgeStyle=orthogonalEdgeStyle;rounded=0;orthogonalLoop=1;jettySize=auto;html=1;entryX=0;entryY=0.5;entryDx=0;entryDy=0;" edge="1" parent="1" source="OKQ_2tcIt85Euyr-6cJD-56" target="OKQ_2tcIt85Euyr-6cJD-58">
          <mxGeometry relative="1" as="geometry" />
        </mxCell>
        <mxCell id="OKQ_2tcIt85Euyr-6cJD-56" value="Start" style="strokeWidth=2;html=1;shape=mxgraph.flowchart.terminator;whiteSpace=wrap;" vertex="1" parent="1">
          <mxGeometry x="90" y="600" width="100" height="60" as="geometry" />
        </mxCell>
        <mxCell id="OKQ_2tcIt85Euyr-6cJD-57" style="edgeStyle=orthogonalEdgeStyle;rounded=0;orthogonalLoop=1;jettySize=auto;html=1;entryX=0;entryY=0.5;entryDx=0;entryDy=0;" edge="1" parent="1" source="OKQ_2tcIt85Euyr-6cJD-58" target="OKQ_2tcIt85Euyr-6cJD-59">
          <mxGeometry relative="1" as="geometry" />
        </mxCell>
        <mxCell id="OKQ_2tcIt85Euyr-6cJD-58" value="SCM Checkout" style="rounded=0;whiteSpace=wrap;html=1;" vertex="1" parent="1">
          <mxGeometry x="250" y="600" width="120" height="60" as="geometry" />
        </mxCell>
        <mxCell id="OKQ_2tcIt85Euyr-6cJD-62" style="edgeStyle=orthogonalEdgeStyle;rounded=0;orthogonalLoop=1;jettySize=auto;html=1;entryX=0;entryY=0.5;entryDx=0;entryDy=0;entryPerimeter=0;" edge="1" parent="1" source="OKQ_2tcIt85Euyr-6cJD-59" target="OKQ_2tcIt85Euyr-6cJD-61">
          <mxGeometry relative="1" as="geometry" />
        </mxCell>
        <mxCell id="OKQ_2tcIt85Euyr-6cJD-63" style="edgeStyle=orthogonalEdgeStyle;rounded=0;orthogonalLoop=1;jettySize=auto;html=1;entryX=0;entryY=0.5;entryDx=0;entryDy=0;" edge="1" parent="1" source="OKQ_2tcIt85Euyr-6cJD-59" target="OKQ_2tcIt85Euyr-6cJD-60">
          <mxGeometry relative="1" as="geometry" />
        </mxCell>
        <mxCell id="OKQ_2tcIt85Euyr-6cJD-59" value="Deploy CloudFormation Stack" style="rounded=0;whiteSpace=wrap;html=1;" vertex="1" parent="1">
          <mxGeometry x="420" y="600" width="120" height="60" as="geometry" />
        </mxCell>
        <mxCell id="OKQ_2tcIt85Euyr-6cJD-93" style="edgeStyle=orthogonalEdgeStyle;rounded=0;orthogonalLoop=1;jettySize=auto;html=1;entryX=0;entryY=0.5;entryDx=0;entryDy=0;" edge="1" parent="1" source="OKQ_2tcIt85Euyr-6cJD-60" target="OKQ_2tcIt85Euyr-6cJD-92">
          <mxGeometry relative="1" as="geometry">
            <Array as="points">
              <mxPoint x="480" y="780" />
              <mxPoint x="400" y="780" />
              <mxPoint x="400" y="830" />
            </Array>
          </mxGeometry>
        </mxCell>
        <mxCell id="OKQ_2tcIt85Euyr-6cJD-60" value="Install aws cli" style="shape=process;whiteSpace=wrap;html=1;backgroundOutline=1;" vertex="1" parent="1">
          <mxGeometry x="420" y="700" width="120" height="60" as="geometry" />
        </mxCell>
        <mxCell id="OKQ_2tcIt85Euyr-6cJD-61" value="End" style="strokeWidth=2;html=1;shape=mxgraph.flowchart.terminator;whiteSpace=wrap;" vertex="1" parent="1">
          <mxGeometry x="600" y="600" width="100" height="60" as="geometry" />
        </mxCell>
        <mxCell id="OKQ_2tcIt85Euyr-6cJD-67" value="FOR loop iterates through template files and deploys" style="shape=process;whiteSpace=wrap;html=1;backgroundOutline=1;" vertex="1" parent="1">
          <mxGeometry x="420" y="900" width="120" height="60" as="geometry" />
        </mxCell>
        <mxCell id="OKQ_2tcIt85Euyr-6cJD-72" style="edgeStyle=orthogonalEdgeStyle;rounded=0;orthogonalLoop=1;jettySize=auto;html=1;entryX=0;entryY=0.5;entryDx=0;entryDy=0;" edge="1" parent="1" source="OKQ_2tcIt85Euyr-6cJD-69" target="OKQ_2tcIt85Euyr-6cJD-71">
          <mxGeometry relative="1" as="geometry" />
        </mxCell>
        <mxCell id="OKQ_2tcIt85Euyr-6cJD-69" value="Sart" style="strokeWidth=2;html=1;shape=mxgraph.flowchart.terminator;whiteSpace=wrap;" vertex="1" parent="1">
          <mxGeometry x="90" y="1100" width="100" height="60" as="geometry" />
        </mxCell>
        <mxCell id="OKQ_2tcIt85Euyr-6cJD-74" style="edgeStyle=orthogonalEdgeStyle;rounded=0;orthogonalLoop=1;jettySize=auto;html=1;entryX=0;entryY=0.5;entryDx=0;entryDy=0;entryPerimeter=0;" edge="1" parent="1" source="OKQ_2tcIt85Euyr-6cJD-71" target="OKQ_2tcIt85Euyr-6cJD-73">
          <mxGeometry relative="1" as="geometry">
            <Array as="points">
              <mxPoint x="390" y="1130" />
              <mxPoint x="390" y="1190" />
              <mxPoint x="70" y="1190" />
              <mxPoint x="70" y="1250" />
            </Array>
          </mxGeometry>
        </mxCell>
        <mxCell id="OKQ_2tcIt85Euyr-6cJD-71" value="Detect new&lt;br&gt;Docker image" style="shape=parallelogram;perimeter=parallelogramPerimeter;whiteSpace=wrap;html=1;fixedSize=1;" vertex="1" parent="1">
          <mxGeometry x="250" y="1100" width="120" height="60" as="geometry" />
        </mxCell>
        <mxCell id="OKQ_2tcIt85Euyr-6cJD-77" style="edgeStyle=orthogonalEdgeStyle;rounded=0;orthogonalLoop=1;jettySize=auto;html=1;entryX=0;entryY=0.5;entryDx=0;entryDy=0;" edge="1" parent="1" source="OKQ_2tcIt85Euyr-6cJD-73" target="OKQ_2tcIt85Euyr-6cJD-75">
          <mxGeometry relative="1" as="geometry" />
        </mxCell>
        <mxCell id="OKQ_2tcIt85Euyr-6cJD-73" value="Workflow&lt;br&gt;Start" style="strokeWidth=2;html=1;shape=mxgraph.flowchart.terminator;whiteSpace=wrap;" vertex="1" parent="1">
          <mxGeometry x="90" y="1220" width="100" height="60" as="geometry" />
        </mxCell>
        <mxCell id="OKQ_2tcIt85Euyr-6cJD-79" style="edgeStyle=orthogonalEdgeStyle;rounded=0;orthogonalLoop=1;jettySize=auto;html=1;entryX=0;entryY=0.5;entryDx=0;entryDy=0;entryPerimeter=0;" edge="1" parent="1" source="OKQ_2tcIt85Euyr-6cJD-75" target="OKQ_2tcIt85Euyr-6cJD-78">
          <mxGeometry relative="1" as="geometry" />
        </mxCell>
        <mxCell id="OKQ_2tcIt85Euyr-6cJD-81" style="edgeStyle=orthogonalEdgeStyle;rounded=0;orthogonalLoop=1;jettySize=auto;html=1;entryX=0;entryY=0.5;entryDx=0;entryDy=0;" edge="1" parent="1" source="OKQ_2tcIt85Euyr-6cJD-75" target="OKQ_2tcIt85Euyr-6cJD-80">
          <mxGeometry relative="1" as="geometry" />
        </mxCell>
        <mxCell id="OKQ_2tcIt85Euyr-6cJD-75" value="Deploy new ECR&lt;br&gt;image to Beanstalk" style="rounded=0;whiteSpace=wrap;html=1;" vertex="1" parent="1">
          <mxGeometry x="250" y="1220" width="120" height="60" as="geometry" />
        </mxCell>
        <mxCell id="OKQ_2tcIt85Euyr-6cJD-78" value="End" style="strokeWidth=2;html=1;shape=mxgraph.flowchart.terminator;whiteSpace=wrap;" vertex="1" parent="1">
          <mxGeometry x="420" y="1220" width="100" height="60" as="geometry" />
        </mxCell>
        <mxCell id="OKQ_2tcIt85Euyr-6cJD-83" style="edgeStyle=orthogonalEdgeStyle;rounded=0;orthogonalLoop=1;jettySize=auto;html=1;entryX=0;entryY=0.5;entryDx=0;entryDy=0;" edge="1" parent="1" source="OKQ_2tcIt85Euyr-6cJD-80" target="OKQ_2tcIt85Euyr-6cJD-82">
          <mxGeometry relative="1" as="geometry">
            <Array as="points">
              <mxPoint x="310" y="1400" />
              <mxPoint x="230" y="1400" />
              <mxPoint x="230" y="1450" />
            </Array>
          </mxGeometry>
        </mxCell>
        <mxCell id="OKQ_2tcIt85Euyr-6cJD-80" value="Install aws cli" style="shape=process;whiteSpace=wrap;html=1;backgroundOutline=1;" vertex="1" parent="1">
          <mxGeometry x="250" y="1320" width="120" height="60" as="geometry" />
        </mxCell>
        <mxCell id="OKQ_2tcIt85Euyr-6cJD-85" style="edgeStyle=orthogonalEdgeStyle;rounded=0;orthogonalLoop=1;jettySize=auto;html=1;entryX=0;entryY=0.5;entryDx=0;entryDy=0;" edge="1" parent="1" source="OKQ_2tcIt85Euyr-6cJD-82" target="OKQ_2tcIt85Euyr-6cJD-84">
          <mxGeometry relative="1" as="geometry">
            <Array as="points">
              <mxPoint x="310" y="1500" />
              <mxPoint x="230" y="1500" />
              <mxPoint x="230" y="1550" />
            </Array>
          </mxGeometry>
        </mxCell>
        <mxCell id="OKQ_2tcIt85Euyr-6cJD-82" value="Get latest ECR&amp;nbsp;&lt;br&gt;image URI" style="shape=parallelogram;perimeter=parallelogramPerimeter;whiteSpace=wrap;html=1;fixedSize=1;" vertex="1" parent="1">
          <mxGeometry x="250" y="1420" width="120" height="60" as="geometry" />
        </mxCell>
        <mxCell id="OKQ_2tcIt85Euyr-6cJD-87" style="edgeStyle=orthogonalEdgeStyle;rounded=0;orthogonalLoop=1;jettySize=auto;html=1;entryX=0;entryY=0.5;entryDx=0;entryDy=0;" edge="1" parent="1" source="OKQ_2tcIt85Euyr-6cJD-84" target="OKQ_2tcIt85Euyr-6cJD-86">
          <mxGeometry relative="1" as="geometry" />
        </mxCell>
        <mxCell id="OKQ_2tcIt85Euyr-6cJD-84" value="Get Beanstalk environment URI" style="shape=parallelogram;perimeter=parallelogramPerimeter;whiteSpace=wrap;html=1;fixedSize=1;" vertex="1" parent="1">
          <mxGeometry x="250" y="1520" width="120" height="60" as="geometry" />
        </mxCell>
        <mxCell id="OKQ_2tcIt85Euyr-6cJD-89" style="edgeStyle=orthogonalEdgeStyle;rounded=0;orthogonalLoop=1;jettySize=auto;html=1;entryX=0;entryY=0.5;entryDx=0;entryDy=0;" edge="1" parent="1" source="OKQ_2tcIt85Euyr-6cJD-86" target="OKQ_2tcIt85Euyr-6cJD-88">
          <mxGeometry relative="1" as="geometry" />
        </mxCell>
        <mxCell id="OKQ_2tcIt85Euyr-6cJD-86" value="Register new task definition" style="shape=process;whiteSpace=wrap;html=1;backgroundOutline=1;" vertex="1" parent="1">
          <mxGeometry x="250" y="1620" width="120" height="60" as="geometry" />
        </mxCell>
        <mxCell id="OKQ_2tcIt85Euyr-6cJD-91" style="edgeStyle=orthogonalEdgeStyle;rounded=0;orthogonalLoop=1;jettySize=auto;html=1;entryX=0;entryY=0.5;entryDx=0;entryDy=0;" edge="1" parent="1" source="OKQ_2tcIt85Euyr-6cJD-88" target="OKQ_2tcIt85Euyr-6cJD-90">
          <mxGeometry relative="1" as="geometry" />
        </mxCell>
        <mxCell id="OKQ_2tcIt85Euyr-6cJD-88" value="Add new task definition to ECS" style="shape=process;whiteSpace=wrap;html=1;backgroundOutline=1;" vertex="1" parent="1">
          <mxGeometry x="250" y="1720" width="120" height="60" as="geometry" />
        </mxCell>
        <mxCell id="OKQ_2tcIt85Euyr-6cJD-90" value="Deploy new version to Beanstalk" style="shape=process;whiteSpace=wrap;html=1;backgroundOutline=1;" vertex="1" parent="1">
          <mxGeometry x="250" y="1820" width="120" height="60" as="geometry" />
        </mxCell>
        <mxCell id="OKQ_2tcIt85Euyr-6cJD-95" style="edgeStyle=orthogonalEdgeStyle;rounded=0;orthogonalLoop=1;jettySize=auto;html=1;entryX=0;entryY=0.5;entryDx=0;entryDy=0;" edge="1" parent="1" source="OKQ_2tcIt85Euyr-6cJD-92" target="OKQ_2tcIt85Euyr-6cJD-67">
          <mxGeometry relative="1" as="geometry">
            <Array as="points">
              <mxPoint x="480" y="880" />
              <mxPoint x="400" y="880" />
              <mxPoint x="400" y="930" />
            </Array>
          </mxGeometry>
        </mxCell>
        <mxCell id="OKQ_2tcIt85Euyr-6cJD-92" value="Define template&lt;br&gt;files" style="shape=parallelogram;perimeter=parallelogramPerimeter;whiteSpace=wrap;html=1;fixedSize=1;" vertex="1" parent="1">
          <mxGeometry x="420" y="800" width="120" height="60" as="geometry" />
        </mxCell>
      </root>
    </mxGraphModel>
  </diagram>
</mxfile>
